<?xml version="1.0" encoding="UTF-8" standalone="no" ?>
<!DOCTYPE svg PUBLIC "-//W3C//DTD SVG 1.1//EN" "http://www.w3.org/Graphics/SVG/1.1/DTD/svg11.dtd">
<svg xmlns="http://www.w3.org/2000/svg" xmlns:xlink="http://www.w3.org/1999/xlink" version="1.1" width="1280" height="1024" viewBox="0 0 1280 1024" xml:space="preserve">
<desc>Created with Fabric.js 3.6.3</desc>
<defs>
</defs>
<g transform="matrix(1.9692780337941629 0 0 1.9692780337941629 640.0153846153846 512.012312418764)" id="background-logo"  >
<rect style="stroke: none; stroke-width: 1; stroke-dasharray: none; stroke-linecap: butt; stroke-dashoffset: 0; stroke-linejoin: miter; stroke-miterlimit: 4; fill: rgb(20,47,83); fill-rule: nonzero; opacity: 1;"  paint-order="stroke"  x="-325" y="-260" rx="0" ry="0" width="650" height="520" />
</g>
<g transform="matrix(1.5610932861492546 0 0 1.5610932861492546 640.0153846153846 407.423956043956)" id="logo-logo"  >
<g style=""  paint-order="stroke"   >
		<g transform="matrix(0.3312942823144148 0 0 -0.3312942823144148 0 0)"  >
<path style="stroke: none; stroke-width: 1; stroke-dasharray: none; stroke-linecap: butt; stroke-dashoffset: 0; stroke-linejoin: miter; stroke-miterlimit: 4; fill: rgb(225,195,84); fill-rule: evenodd; opacity: 1;"  paint-order="stroke"  transform=" translate(-280.0020625, -400)" d="M 479.32 640.297 H 80.6836 V 799.75 h 79.7224 v -79.73 h 79.731 v 79.73 h 79.73 v -79.73 h 79.731 v 79.73 H 479.32 V 720.02 Z M 359.723 484.738 h 79.73 v -293.75 c 24.633 39.325 39.867 91.758 39.867 163.117 h 77.993 C 557.313 194.086 491.273 79.3555 340.793 20.3086 C 320.648 12.4063 300.391 6.00781 280 0.25 C 259.613 6.00781 239.355 12.4063 219.207 20.3086 C 68.7266 79.3555 2.69141 194.086 2.69141 354.105 H 80.6836 c 0 -71.359 15.2344 -123.792 39.8634 -163.113 v 293.746 h 79.726 V 115.539 C 225.379 100.938 252.59 90.2344 280 81.5352 c 27.41 8.6992 54.621 19.4028 79.723 34.0038 z M 559.051 600.43 H 0.953125 V 393.098 H 80.6836 V 523.73 H 240.137 V 138.855 c 12.258 -5.894 25.527 -11.285 39.863 -16.246 c 14.336 4.961 27.609 10.352 39.867 16.246 V 523.73 H 479.32 V 393.098 h 79.731 V 600.43" stroke-linecap="round" />
</g>
</g>
</g>
<g transform="matrix(1.9692780337941629 0 0 1.9692780337941629 640.574051870089 323.0139530062687)" id="tagline-44b97d3c-0742-4417-beb0-f0541dacee4d-logo-path"  >
<linearGradient id="SVGID_7_4_616977" gradientUnits="userSpaceOnUse" gradientTransform="matrix(1 0 0 1 1.0699999999999932 -9.69)"  x1="0" y1="0" x2="0" y2="16">
<stop offset="0%" style="stop-color:rgb(98,39,116);stop-opacity: 1"/>
<stop offset="100%" style="stop-color:rgb(197,51,100);stop-opacity: 1"/>
</linearGradient>
<path style="stroke: none; stroke-width: 0; stroke-dasharray: none; stroke-linecap: butt; stroke-dashoffset: 0; stroke-linejoin: miter; stroke-miterlimit: 4; fill: url(#SVGID_7_4_616977); fill-rule: nonzero; opacity: 1;"  paint-order="stroke"  transform=" translate(-70.675, 4.76)" d="M 3.36 0 L 1.07 0 L 1.07 -9.52 L 3.61 -9.52 L 6.93 -2.54 L 10.23 -9.52 L 12.8 -9.52 L 12.8 0 L 10.49 0 L 10.49 -4.86 L 8.2 0 L 5.64 0 L 3.36 -4.86 L 3.36 0 Z M 22.2 0 L 14.91 0 L 14.91 -9.52 L 22.2 -9.52 L 22.2 -7.39 L 17.21 -7.39 L 17.21 -5.76 L 21.38 -5.76 L 21.38 -3.77 L 17.21 -3.77 L 17.21 -2.13 L 22.2 -2.13 L 22.2 0 Z M 28.27 0 L 24.06 0 L 24.06 -9.51 L 28.27 -9.52 Q 28.29 -9.52 28.31 -9.52 L 28.31 -9.52 Q 29.44 -9.53 30.38 -9.17 L 30.38 -9.17 Q 31.33 -8.82 31.96 -8.18 Q 32.6 -7.55 32.95 -6.67 Q 33.3 -5.8 33.3 -4.77 L 33.3 -4.77 Q 33.3 -3.4 32.67 -2.31 Q 32.03 -1.22 30.88 -0.61 Q 29.74 0 28.27 0 L 28.27 0 Z M 26.36 -7.39 L 26.36 -2.13 L 28.27 -2.13 Q 29.48 -2.13 30.23 -2.85 Q 30.97 -3.58 30.97 -4.77 L 30.97 -4.77 Q 30.97 -6.03 30.25 -6.71 Q 29.52 -7.39 28.27 -7.39 L 28.27 -7.39 L 26.36 -7.39 Z M 37.76 -4.76 L 37.76 -4.76 Q 37.76 -5.74 38.15 -6.64 Q 38.54 -7.55 39.22 -8.22 Q 39.89 -8.89 40.87 -9.29 Q 41.84 -9.69 42.93 -9.69 L 42.93 -9.69 Q 44.27 -9.69 45.36 -9.13 Q 46.46 -8.57 47.2 -7.6 L 47.2 -7.6 L 45.21 -6.6 Q 44.47 -7.53 42.9 -7.53 L 42.9 -7.53 Q 41.66 -7.53 40.87 -6.75 Q 40.07 -5.97 40.07 -4.79 L 40.07 -4.79 Q 40.07 -3.63 40.89 -2.8 Q 41.7 -1.98 42.93 -1.98 L 42.93 -1.98 Q 44.42 -1.98 45.27 -2.78 L 45.27 -2.78 L 45.27 -3.7 L 42.37 -3.7 L 42.37 -5.46 L 47.3 -5.46 L 47.3 -1.93 Q 47.26 -1.86 47.09 -1.66 Q 46.92 -1.46 46.54 -1.14 Q 46.15 -0.81 45.67 -0.53 Q 45.19 -0.25 44.46 -0.04 Q 43.73 0.17 42.94 0.17 L 42.94 0.17 Q 41.79 0.17 40.81 -0.24 Q 39.83 -0.65 39.17 -1.33 Q 38.51 -2.02 38.13 -2.91 Q 37.76 -3.79 37.76 -4.76 Z M 48.56 -4.89 L 48.56 -4.89 L 48.56 -9.52 L 50.85 -9.52 L 50.85 -4.89 Q 50.85 -3.5 51.43 -2.73 Q 52.01 -1.96 53.09 -1.96 L 53.09 -1.96 Q 54.17 -1.96 54.79 -2.74 Q 55.42 -3.52 55.42 -4.89 L 55.42 -4.89 L 55.42 -9.52 L 57.74 -9.52 L 57.74 -4.89 Q 57.74 -3.73 57.39 -2.77 Q 57.04 -1.81 56.42 -1.17 Q 55.79 -0.53 54.94 -0.18 Q 54.09 0.17 53.09 0.17 L 53.09 0.17 Q 51.04 0.17 49.8 -1.19 Q 48.56 -2.55 48.56 -4.89 Z M 66.68 0 L 59.39 0 L 59.39 -9.52 L 61.69 -9.52 L 61.69 -2.13 L 66.68 -2.13 L 66.68 0 Z M 75.61 0 L 68.32 0 L 68.32 -9.52 L 70.62 -9.52 L 70.62 -2.13 L 75.61 -2.13 L 75.61 0 Z M 82.86 0 L 80.56 0 L 80.56 -9.52 L 82.86 -9.52 L 82.86 0 Z M 87.86 -3.33 L 87.86 -3.33 L 90.15 -3.33 Q 90.15 -3.27 90.18 -3.17 Q 90.2 -3.06 90.33 -2.8 Q 90.47 -2.54 90.67 -2.34 Q 90.87 -2.15 91.28 -1.98 Q 91.69 -1.82 92.22 -1.82 L 92.22 -1.82 Q 92.93 -1.82 93.27 -2.07 Q 93.62 -2.32 93.62 -2.66 L 93.62 -2.66 Q 93.62 -2.84 93.52 -2.98 Q 93.42 -3.12 93.29 -3.22 Q 93.15 -3.32 92.9 -3.41 Q 92.65 -3.5 92.46 -3.55 Q 92.26 -3.6 91.94 -3.68 L 91.94 -3.68 Q 90.58 -4.01 89.93 -4.27 L 89.93 -4.27 Q 88.01 -5.07 88.01 -6.67 L 88.01 -6.67 Q 88.01 -7.52 88.52 -8.21 Q 89.04 -8.91 89.92 -9.3 Q 90.81 -9.69 91.88 -9.69 L 91.88 -9.69 Q 92.77 -9.69 93.51 -9.4 Q 94.25 -9.11 94.72 -8.65 Q 95.18 -8.19 95.43 -7.63 Q 95.68 -7.08 95.68 -6.51 L 95.68 -6.51 L 93.39 -6.51 Q 93.39 -6.91 92.97 -7.27 Q 92.54 -7.63 91.85 -7.63 L 91.85 -7.63 Q 91.29 -7.63 90.81 -7.39 Q 90.33 -7.16 90.33 -6.77 L 90.33 -6.77 Q 90.33 -6.45 90.74 -6.27 Q 91.16 -6.08 92.3 -5.78 L 92.3 -5.78 Q 93.6 -5.45 94.17 -5.19 L 94.17 -5.19 Q 95.73 -4.48 95.89 -3.14 L 95.89 -3.14 Q 95.92 -2.97 95.92 -2.79 L 95.92 -2.79 Q 95.92 -1.44 94.85 -0.64 Q 93.79 0.17 92.09 0.17 L 92.09 0.17 Q 91.23 0.17 90.51 -0.05 Q 89.79 -0.27 89.31 -0.63 Q 88.83 -0.99 88.5 -1.46 Q 88.16 -1.92 88.01 -2.4 Q 87.86 -2.87 87.86 -3.33 Z M 99.89 0 L 97.59 0 L 97.59 -9.52 L 99.89 -9.52 L 99.89 0 Z M 104.31 0 L 102.01 0 L 102.01 -9.52 L 104.31 -9.52 L 104.31 -5.33 L 107.95 -9.52 L 110.83 -9.52 L 107.56 -5.68 L 111.53 0 L 108.55 0 L 105.94 -3.93 L 104.31 -2.14 L 104.31 0 Z M 115.35 -7.39 L 111.98 -7.39 L 111.98 -9.52 L 121.05 -9.52 L 121.05 -7.39 L 117.67 -7.39 L 117.67 0 L 115.35 0 L 115.35 -7.39 Z M 129.91 0 L 122.62 0 L 122.62 -9.52 L 129.91 -9.52 L 129.91 -7.39 L 124.91 -7.39 L 124.91 -5.76 L 129.08 -5.76 L 129.08 -3.77 L 124.91 -3.77 L 124.91 -2.13 L 129.91 -2.13 L 129.91 0 Z M 134.58 -7.39 L 131.21 -7.39 L 131.21 -9.52 L 140.28 -9.52 L 140.28 -7.39 L 136.9 -7.39 L 136.9 0 L 134.58 0 L 134.58 -7.39 Z" stroke-linecap="round" />
</g>
<g transform="matrix(1.9692780337941629 0 0 1.9692780337941629 639.0228684863524 261.51203506437923)" id="text-logo-path"  >
<linearGradient id="SVGID_8_6_616979" gradientUnits="userSpaceOnUse" gradientTransform="matrix(1 0 0 1 0.020000000000003126 -14.62)"  x1="0" y1="0" x2="0" y2="24">
<stop offset="0%" style="stop-color:rgb(98,39,116);stop-opacity: 1"/>
<stop offset="100%" style="stop-color:rgb(197,51,100);stop-opacity: 1"/>
</linearGradient>
<path style="stroke: none; stroke-width: 0; stroke-dasharray: none; stroke-linecap: butt; stroke-dashoffset: 0; stroke-linejoin: miter; stroke-miterlimit: 4; fill: url(#SVGID_8_6_616979); fill-rule: nonzero; opacity: 1;"  paint-order="stroke"  transform=" translate(-49.05500000000001, 7.31)" d="M 5.31 0 L 2.94 0 Q 2.86 0 2.86 -0.11 L 2.86 -0.11 L 2.86 -12.08 L 0.13 -12.08 Q 0.02 -12.08 0.02 -12.18 L 0.02 -12.18 L 0.04 -14.53 Q 0.04 -14.62 0.13 -14.62 L 0.13 -14.62 L 8.11 -14.62 Q 8.21 -14.62 8.21 -14.53 L 8.21 -14.53 L 8.21 -12.18 Q 8.21 -12.08 8.13 -12.08 L 8.13 -12.08 L 5.38 -12.08 L 5.4 -0.11 Q 5.4 0 5.31 0 L 5.31 0 Z M 16.11 0 L 9.32 0 Q 9.24 0 9.24 -0.11 L 9.24 -0.11 L 9.26 -14.53 Q 9.26 -14.62 9.35 -14.62 L 9.35 -14.62 L 16.09 -14.62 Q 16.17 -14.62 16.17 -14.51 L 16.17 -14.51 L 16.17 -12.16 Q 16.17 -12.08 16.09 -12.08 L 16.09 -12.08 L 11.78 -12.08 L 11.78 -8.8 L 16.09 -8.8 Q 16.17 -8.8 16.17 -8.71 L 16.17 -8.71 L 16.19 -6.34 Q 16.19 -6.26 16.11 -6.26 L 16.11 -6.26 L 11.78 -6.26 L 11.78 -2.58 L 16.11 -2.58 Q 16.19 -2.58 16.19 -2.48 L 16.19 -2.48 L 16.19 -0.08 Q 16.19 0 16.11 0 L 16.11 0 Z M 17.14 -0.11 L 17.14 -0.11 L 19.74 -14.53 Q 19.76 -14.62 19.84 -14.62 L 19.84 -14.62 L 22.89 -14.62 Q 22.97 -14.62 22.99 -14.53 L 22.99 -14.53 L 25.49 -0.11 Q 25.52 0 25.41 0 L 25.41 0 L 23.08 0 Q 22.99 0 22.97 -0.11 L 22.97 -0.11 L 22.74 -1.64 L 19.89 -1.64 L 19.66 -0.11 Q 19.63 0 19.55 0 L 19.55 0 L 17.22 0 Q 17.14 0 17.14 -0.11 Z M 21.25 -9.79 L 20.31 -3.89 L 22.32 -3.89 L 21.46 -9.79 L 21.34 -10.56 L 21.25 -9.79 Z M 29.27 0 L 26.9 0 Q 26.82 0 26.82 -0.11 L 26.82 -0.11 L 26.86 -14.53 Q 26.86 -14.62 26.94 -14.62 L 26.94 -14.62 L 29.5 -14.62 Q 29.59 -14.62 29.65 -14.53 L 29.65 -14.53 L 31.56 -11.76 L 33.47 -14.53 Q 33.54 -14.62 33.62 -14.62 L 33.62 -14.62 L 36.2 -14.62 Q 36.29 -14.62 36.29 -14.53 L 36.29 -14.53 L 36.33 -0.11 Q 36.33 0 36.25 0 L 36.25 0 L 33.87 0 Q 33.79 0 33.79 -0.11 L 33.79 -0.11 L 33.77 -10.82 L 31.56 -7.62 L 29.38 -10.82 L 29.36 -0.11 Q 29.36 0 29.27 0 L 29.27 0 Z M 43.66 0 L 41.29 0 Q 41.2 0 41.2 -0.11 L 41.2 -0.11 L 41.22 -14.53 Q 41.22 -14.62 41.33 -14.62 L 41.33 -14.62 L 43.66 -14.62 Q 43.76 -14.62 43.76 -14.53 L 43.76 -14.53 L 43.74 -8.82 L 46.89 -8.82 L 46.89 -14.53 Q 46.89 -14.62 46.98 -14.62 L 46.98 -14.62 L 49.31 -14.62 Q 49.41 -14.62 49.41 -14.53 L 49.41 -14.53 L 49.45 -0.11 Q 49.45 0 49.35 0 L 49.35 0 L 47 0 Q 46.89 0 46.89 -0.11 L 46.89 -0.11 L 46.89 -6.28 L 43.74 -6.28 L 43.74 -0.11 Q 43.74 0 43.66 0 L 43.66 0 Z M 58.04 0 L 51.26 0 Q 51.18 0 51.18 -0.11 L 51.18 -0.11 L 51.2 -14.53 Q 51.2 -14.62 51.28 -14.62 L 51.28 -14.62 L 58.02 -14.62 Q 58.11 -14.62 58.11 -14.51 L 58.11 -14.51 L 58.11 -12.16 Q 58.11 -12.08 58.02 -12.08 L 58.02 -12.08 L 53.72 -12.08 L 53.72 -8.8 L 58.02 -8.8 Q 58.11 -8.8 58.11 -8.71 L 58.11 -8.71 L 58.13 -6.34 Q 58.13 -6.26 58.04 -6.26 L 58.04 -6.26 L 53.72 -6.26 L 53.72 -2.58 L 58.04 -2.58 Q 58.13 -2.58 58.13 -2.48 L 58.13 -2.48 L 58.13 -0.08 Q 58.13 0 58.04 0 L 58.04 0 Z M 62.45 0 L 60.08 0 Q 60 0 60 -0.11 L 60 -0.11 L 60.04 -14.53 Q 60.04 -14.62 60.12 -14.62 L 60.12 -14.62 L 62.68 -14.62 Q 62.77 -14.62 62.83 -14.53 L 62.83 -14.53 L 64.74 -11.76 L 66.65 -14.53 Q 66.72 -14.62 66.8 -14.62 L 66.8 -14.62 L 69.38 -14.62 Q 69.47 -14.62 69.47 -14.53 L 69.47 -14.53 L 69.51 -0.11 Q 69.51 0 69.43 0 L 69.43 0 L 67.05 0 Q 66.97 0 66.97 -0.11 L 66.97 -0.11 L 66.95 -10.82 L 64.74 -7.62 L 62.56 -10.82 L 62.54 -0.11 Q 62.54 0 62.45 0 L 62.45 0 Z M 75.12 0 L 71.36 0 Q 71.27 0 71.27 -0.11 L 71.27 -0.11 L 71.32 -14.53 Q 71.32 -14.62 71.4 -14.62 L 71.4 -14.62 L 75.43 -14.62 Q 76.63 -14.62 77.57 -14.04 Q 78.52 -13.46 79.06 -12.52 Q 79.61 -11.57 79.61 -10.46 L 79.61 -10.46 Q 79.61 -9.55 79.2 -8.78 Q 78.79 -8 78.22 -7.52 L 78.22 -7.52 Q 78.83 -6.91 79.17 -6.11 Q 79.51 -5.31 79.51 -4.43 L 79.51 -4.43 Q 79.51 -3.21 78.92 -2.21 Q 78.33 -1.2 77.33 -0.6 Q 76.33 0 75.12 0 L 75.12 0 Z M 73.84 -12.12 L 73.84 -8.82 L 75.43 -8.82 Q 76.17 -8.82 76.62 -9.33 Q 77.07 -9.85 77.07 -10.46 L 77.07 -10.46 Q 77.07 -11.13 76.59 -11.62 Q 76.1 -12.12 75.43 -12.12 L 75.43 -12.12 L 73.84 -12.12 Z M 73.84 -6.28 L 73.81 -2.56 L 75.12 -2.56 Q 75.87 -2.56 76.42 -3.12 Q 76.97 -3.68 76.97 -4.43 L 76.97 -4.43 Q 76.97 -5.19 76.42 -5.73 Q 75.87 -6.28 75.12 -6.28 L 75.12 -6.28 L 73.84 -6.28 Z M 83.47 0 L 81.1 0 Q 81.02 0 81.02 -0.11 L 81.02 -0.11 L 81.06 -14.53 Q 81.06 -14.62 81.14 -14.62 L 81.14 -14.62 L 85.39 -14.62 Q 86.52 -14.62 87.48 -14.06 Q 88.43 -13.5 89 -12.57 Q 89.56 -11.63 89.56 -10.46 L 89.56 -10.46 Q 89.56 -9.68 89.33 -9.06 Q 89.1 -8.44 88.79 -8.01 Q 88.47 -7.58 88.22 -7.37 L 88.22 -7.37 Q 89.36 -6.11 89.36 -4.41 L 89.36 -4.41 L 89.38 -0.11 Q 89.38 0 89.27 0 L 89.27 0 L 86.9 0 Q 86.81 0 86.81 -0.06 L 86.81 -0.06 L 86.81 -4.41 Q 86.81 -5.17 86.28 -5.72 Q 85.74 -6.28 84.97 -6.28 L 84.97 -6.28 L 83.58 -6.28 L 83.56 -0.11 Q 83.56 0 83.47 0 L 83.47 0 Z M 83.58 -12.1 L 83.58 -8.8 L 85.39 -8.8 Q 86.04 -8.8 86.54 -9.28 Q 87.05 -9.77 87.05 -10.46 L 87.05 -10.46 Q 87.05 -11.13 86.55 -11.61 Q 86.06 -12.1 85.39 -12.1 L 85.39 -12.1 L 83.58 -12.1 Z M 98.01 0 L 91.22 0 Q 91.14 0 91.14 -0.11 L 91.14 -0.11 L 91.16 -14.53 Q 91.16 -14.62 91.24 -14.62 L 91.24 -14.62 L 97.99 -14.62 Q 98.07 -14.62 98.07 -14.51 L 98.07 -14.51 L 98.07 -12.16 Q 98.07 -12.08 97.99 -12.08 L 97.99 -12.08 L 93.68 -12.08 L 93.68 -8.8 L 97.99 -8.8 Q 98.07 -8.8 98.07 -8.71 L 98.07 -8.71 L 98.09 -6.34 Q 98.09 -6.26 98.01 -6.26 L 98.01 -6.26 L 93.68 -6.26 L 93.68 -2.58 L 98.01 -2.58 Q 98.09 -2.58 98.09 -2.48 L 98.09 -2.48 L 98.09 -0.08 Q 98.09 0 98.01 0 L 98.01 0 Z" stroke-linecap="round" />
</g>
</svg>